<svg width="10" height="8" viewBox="0 0 10 8" fill="none" xmlns="http://www.w3.org/2000/svg">
<path fill-rule="evenodd" clip-rule="evenodd" d="M9.375 0H0.625C0.279822 0 0 0.255837 0 0.571429C0 0.88702 0.279822 1.14286 0.625 1.14286H9.375C9.72018 1.14286 10 0.88702 10 0.571429C10 0.255837 9.72018 0 9.375 0ZM9.375 3.42857H0.625C0.279822 3.42857 0 3.68441 0 4C0 4.31559 0.279822 4.57143 0.625 4.57143H9.375C9.72018 4.57143 10 4.31559 10 4C10 3.68441 9.72018 3.42857 9.375 3.42857ZM0.625 6.85714H9.375C9.72018 6.85714 10 7.11298 10 7.42857C10 7.74416 9.72018 8 9.375 8H0.625C0.279822 8 0 7.74416 0 7.42857C0 7.11298 0.279822 6.85714 0.625 6.85714Z" fill="#373867"/>
</svg>
